<svg xmlns="http://www.w3.org/2000/svg" width="128" height="128" >
 <defs>
  <radialGradient id="rgBlue" cx="0.2" cy="0.6" r="0.25">
   <stop stop-color="#0064e0" id="stop4579" offset="0"/>
   <stop stop-color="#003cd8" id="stop4581" offset="1"/>
  </radialGradient>
  <linearGradient id="lgYellow">
   <stop stop-color="#ffd42a" id="stop4571" offset="0"/>
   <stop stop-color="#d4a018" id="stop4573" offset="1"/>
  </linearGradient>
 </defs>
  <path fill="url(#lgYellow)" d="m56.205927,105.326742c-0.2289,-0.370366 1.196307,-2.530431 3.167088,-4.800103c11.545662,-13.296735 17.516589,-28.042111 16.876748,-41.677837c-0.260033,-5.542952 -0.594016,-7.026551 -2.414164,-10.724146c-6.180668,-12.555203 -20.110894,-15.819007 -36.599393,-8.57529c-2.790072,1.225699 -5.299844,2.228564 -5.577385,2.228564c-1.132849,0 2.918247,-3.514963 7.944458,-6.893067c23.97004,-16.110324 47.381814,-17.026648 62.029198,-2.428414c4.941995,4.925253 8.948173,12.362936 10.833263,20.112478c2.380739,9.787172 1.961881,24.03254 -1.055149,35.885935c-1.696315,6.664259 -4.243895,14.002251 -5.557786,16.007041l-1.007799,1.538098l-24.111457,0c-15.629916,0 -24.258181,-0.236875 -24.527781,-0.673416l0.000158,0.000158z" />
  <path fill="url(#rgBlue)" d="m28.073775,103.160403c-5.204344,-2.040164 -10.652113,-7.559392 -12.555736,-12.721519c-3.03488,-8.227833 -1.46749,-16.968915 4.237962,-23.634232c8.868732,-10.360797 26.627379,-9.848606 34.838786,1.005099c7.345942,9.709839 6.296676,22.883166 -2.459606,30.885891c-6.483643,5.925902 -15.884157,7.670092 -24.06114,4.464662l-0.000267,0.0001z" />
</svg>