<svg width="24" height="24" xmlns="http://www.w3.org/2000/svg">
  <path fill="#696969" d="m3,2c-1.1,0 -2,0.9 -2,2l0,15c0,1.1 0.9,2 2,2l7.80469,0c-0.5,-0.6 -0.79375,-1.3 -1.09375,-2l-6.71094,0l0,-11.55078l14.89844,0l0,3.36328c0.7,0.2 1.4,0.59375 2,1.09375l0,-7.90625c0,-1.1 -0.9,-2 -2,-2l-14.89844,0zm1.28516,1.39258a1.29691,1.29691 0 0 1 1.29687,1.29687a1.29691,1.29691 0 0 1 -1.29687,1.29688a1.29691,1.29691 0 0 1 -1.29688,-1.29688a1.29691,1.29691 0 0 1 1.29688,-1.29687zm3.50586,0a1.29691,1.29691 0 0 1 1.29687,1.29687a1.29691,1.29691 0 0 1 -1.29687,1.29688a1.29691,1.29691 0 0 1 -1.29688,-1.29688a1.29691,1.29691 0 0 1 1.29688,-1.29687zm7.71875,8.2539c-2.74546,0 -5,2.25455 -5,5c0,2.74546 2.25454,5 5,5c1.01433,0 1.95862,-0.28595 2.75,-0.8125l2.84375,2.8125l1.40625,-1.40625l-2.8125,-2.84375c0.52655,-0.79137 0.8125,-1.73566 0.8125,-2.75c0,-2.74545 -2.25455,-5 -5,-5zm0,2c1.65454,0 3,1.34546 3,3c0,1.65455 -1.34546,3 -3,3c-1.65455,0 -3,-1.34545 -3,-3c0,-1.65454 1.34545,-3 3,-3z" id="circle3354"/>
</svg>