<svg width="20" height="20" xmlns="http://www.w3.org/2000/svg">
 <g>
  <path fill="#a9a9a9" id="path3376" d="m11.2,2.2222c-2.4501,1.2999 -6.9,0 -6.9,0l0,9c0,0 4.4499,1.2999 6.9,0c2.4501,-1.2999 5.7,0 5.7,0l0,-9c0,0 -3.2499,-1.2999 -5.7,0z"/>
  <path fill="#696969" id="path3378" d="m3.25,1c-0.5796,0 -1.05,0.1341 -1.05,0.3l0,0.9l0,16.5c0,0.1659 0.4704,0.3 1.05,0.3c0.5796,0 1.05,-0.1341 1.05,-0.3l0,-16.5l0,-0.9c0,-0.1659 -0.4704,-0.3 -1.05,-0.3z"/>
  <path fill="#9b9b9b" id="path3380" d="m12.1,1.8637c-0.3066,0.0876 -0.609,0.2043 -0.9,0.3588c-0.9297,0.4932 -2.1468,0.6117 -3.3,0.5694l0,9c1.1532,0.0423 2.3703,-0.0762 3.3,-0.5694c0.291,-0.1545 0.5934,-0.2712 0.9,-0.3588l0,-9z"/>
 </g>
</svg>