<svg width="128" height="128" xmlns="http://www.w3.org/2000/svg">
 <defs>
  <linearGradient x1="0.15103" y1="0.268632" x2="0.896015" y2="0.420163" id="linearGradient3218">
   <stop stop-color="#00fffc" offset="0" id="stop3248"/>
   <stop stop-color="#00fffc" stop-opacity="0.506" offset="1" id="stop3250"/>
  </linearGradient>
  <linearGradient x1="0.189474" y1="0.382275" x2="1.189453" y2="0.528853" id="linearGradient3244">
   <stop stop-color="#fffffc" offset="0" id="stop3240"/>
   <stop stop-color="#fffffc" stop-opacity="0" offset="1" id="stop3242"/>
  </linearGradient>
  <linearGradient x1="1.354902" y1="0.383656" x2="-0.175597" y2="0.587537" id="linearGradient3254">
   <stop stop-color="#ffffff" stop-opacity="0.66176" offset="0" id="stop3258"/>
   <stop stop-color="#fffffc" stop-opacity="0" offset="1" id="stop3260"/>
  </linearGradient>
 </defs>
 <metadata>image/svg+xmlOpenclipartLab icon 32009-03-21T16:59:00https://openclipart.org/detail/22738/lab-icon-3-by-papapishupapapishuchemistryflaskiconlaboratoryremixscience</metadata>
 <g>
  <title>background</title>
  <rect fill="none" id="canvas_background" height="402" width="582" y="-1" x="-1"/>
 </g>
 <g>
  <title>Layer 1</title>
  <g stroke="null" id="layer1">
   <path stroke="null" fill-rule="evenodd" fill="#ff00ff" d="m43.178467,71.009117l-11.497683,17.160893c-4.89217,7.510962 -4.24253,17.562673 9.094955,16.471509c2.743806,-0.224014 44.274498,0 44.274498,0c17.405863,1.495833 15.368061,-9.769887 10.981729,-15.442492l-11.839484,-18.017926l-41.014015,-0.171985z" id="path3997"/>
   <path stroke="null" opacity="0.5" fill="#000000" d="m77.794145,20.651998l-28.746736,0.022618c-0.58099,0.004697 -1.110674,0.343753 -1.331797,0.880663c-0.221846,0.536982 -0.092496,1.167617 0.315787,1.580814c2.204728,2.164406 3.018404,3.858238 3.386942,5.758019c0.369261,1.900503 0.222568,4.108844 0.248583,6.978387l0.158255,17.297469l-22.740279,34.053693c-0.015175,0.022401 -0.03035,0.044803 -0.044803,0.067927c-2.963484,4.93914 -3.547365,9.997514 -1.942415,13.885235c1.595556,3.873269 5.494839,6.380777 10.501183,6.120632c0.031073,0 0.058533,0.007226 0.089605,0l52.706806,0.050584c5.376328,-0.028905 9.459158,-2.69539 10.839372,-6.799899c1.372987,-4.075604 0.144525,-9.20624 -3.815459,-14.250161l-0.065036,-0.112729l-21.524102,-32.969756l-0.406838,-17.320593c-0.000723,-0.083824 0.001445,-0.14308 0,-0.225459c0,-0.015175 0.000723,-0.031073 0,-0.045525c-0.033963,-2.724295 -0.186437,-4.866878 0.135853,-6.706681c0.333853,-1.907007 1.109229,-3.598671 3.274213,-5.803761c0.411173,-0.416087 0.521012,-1.041736 0.293386,-1.580742s-0.747194,-0.885071 -1.33252,-0.880735zm-2.890499,2.890499c-1.108506,1.638768 -1.907007,3.261784 -2.190276,4.877573c-0.33024,1.886773 -0.257254,3.782941 -0.203058,5.804122l-6.435696,0c-0.052752,-0.00289 -0.105503,-0.00289 -0.158255,0c-0.7985,0.043357 -1.398279,0.714676 -1.354921,1.512454c0.043357,0.7985 0.714676,1.421403 1.513176,1.378045l6.480499,0l0.271707,11.020028l-6.752206,0c-0.052752,-0.00289 -0.105503,-0.00289 -0.158255,0c-0.7985,0.043357 -1.398279,0.714676 -1.354921,1.512454c0.043357,0.7985 0.714676,1.421403 1.513176,1.378045l6.81941,0l0.067927,2.686719c0.005781,0.264481 0.083824,0.522458 0.226182,0.745749l5.147979,7.880946l-6.93214,0c-0.052752,-0.00289 -0.105503,-0.00289 -0.158255,0c-0.7985,0.043357 -1.398279,0.714676 -1.354921,1.513176c0.043357,0.797778 0.714676,1.42068 1.513176,1.377323l7.880946,0c0.287605,0.003613 0.555698,-0.075876 0.790552,-0.226182l5.667546,8.693899l-6.661155,0c-0.045525,-0.001445 -0.090328,-0.001445 -0.135853,0c-0.797778,0.037576 -1.414899,0.715399 -1.377323,1.513176c0.037576,0.7985 0.714676,1.414899 1.513176,1.377323l7.880946,0c0.208116,0.003613 0.402502,-0.055642 0.586771,-0.135131l5.490503,8.400513l-6.257931,0c-0.044803,-0.002168 -0.090328,-0.002168 -0.135853,0c-0.797778,0.037576 -1.414899,0.714676 -1.377323,1.513176c0.037576,0.797778 0.714676,1.414899 1.513176,1.377323l7.883836,0c0.072262,0.000723 0.151751,-0.011562 0.224014,-0.022401l0.108394,0.158255c0.021679,0.038299 0.050584,0.075876 0.072262,0.112729c3.613124,4.556872 4.408011,8.740869 3.432468,11.631368c-0.975543,2.883273 -3.642029,4.812681 -8.129529,4.83436l-52.774733,-0.050584l-0.091051,0c-4.074881,0.238466 -6.577331,-1.50306 -7.745092,-4.335749s-0.840413,-6.95165 1.761037,-11.288844l22.943337,-34.392604c0.162591,-0.239911 0.249306,-0.52318 0.248583,-0.812953l-0.158255,-17.726708c-0.024569,-2.741638 0.152474,-5.083665 -0.315787,-7.497955c-0.309283,-1.594833 -1.117901,-3.18533 -2.235801,-4.787028l22.897811,-0.022618z" id="rect3162"/>
   <path stroke="#000000" opacity="0.25" stroke-linejoin="round" stroke-linecap="round" stroke-width="8" fill="none" d="m49.050516,22.103823c4.72163,4.635855 4.009122,8.139646 4.060429,13.750827l0.161868,17.719482l-22.996088,34.447523c-5.564933,9.27778 -1.800058,18.353947 7.327415,17.819204l52.784127,0.050584c9.863828,-0.036131 13.469726,-9.177335 5.824356,-18.813536l-21.816042,-33.417783l-0.411173,-17.748387c-0.051306,-5.611181 -0.827405,-9.101459 3.808233,-13.823089l-28.743123,0.014958l0,0.000217z" id="path2388"/>
   <path stroke="null" opacity="0.25" fill="url(#linearGradient3218)" d="m49.101099,22.103823c4.73247,4.635855 4.018516,8.139646 4.069823,13.750827l0.162591,17.719482l-23.050285,34.447523c-5.578663,9.27778 -1.805117,18.353947 7.344758,17.819204l52.904805,0.050584c9.892733,-0.036131 13.505857,-9.177335 5.838808,-18.813536l-21.865181,-33.417783l-0.411173,-17.748387c-0.051306,-5.611181 -0.830296,-9.101459 3.816181,-13.823089l-28.810327,0.014958l0,0.000217z" id="path3181"/>
   <path stroke="null" opacity="0.66544" fill-rule="evenodd" fill="url(#linearGradient3244)" d="m39.403258,102.072878c-5.077884,0.469706 -9.102904,-3.049477 -5.835195,-9.271276l23.338612,-37.752086l-0.171262,-25.054124c0.015898,-1.716234 -0.202335,-3.432468 -1.544972,-5.147979c2.938915,1.384549 5.600342,2.861594 5.835195,5.147979l0.343247,26.427111c0.076598,5.936363 -9.140481,18.205809 -13.195851,25.37786c-5.520131,9.765551 -12.825145,16.999025 -8.769774,20.272516z" id="path3220"/>
   <path stroke="null" fill-rule="evenodd" fill="url(#linearGradient3254)" d="m90.388266,101.758247c5.080052,0.469706 7.045592,-3.222907 3.779328,-9.43748l-23.341503,-37.756422l0.171262,-25.054846c-0.015898,-1.715511 0.202335,-3.431745 1.544972,-5.147979c-2.938915,1.385272 -3.712846,2.862317 -3.946977,5.147979l-0.171985,26.255849c-0.039022,5.937085 9.826974,17.6913 13.882345,24.863351c5.51724,9.762661 12.136483,17.863285 8.082558,21.129549z" id="path3252"/>
  </g>
 </g>
</svg>