<?xml version="1.0" encoding="utf-8"?>
<!-- Generator: Adobe Illustrator 21.1.0, SVG Export Plug-In . SVG Version: 6.00 Build 0)  -->
<svg version="1.1" id="Capa_1" xmlns="http://www.w3.org/2000/svg" xmlns:xlink="http://www.w3.org/1999/xlink" x="0px" y="0px"
	 viewBox="0 0 64 64" style="enable-background:new 0 0 64 64;" xml:space="preserve">
<style type="text/css">
	.st0{fill:#2C78FF;stroke:#286CE5;stroke-width:2;stroke-miterlimit:10;}
	.st1{fill:#FFFFFF;}
</style>
<path class="st0" d="M7.1,63h49.8c3.4,0,6.1-2.7,6.1-6.1V7.1C63,3.7,60.3,1,56.9,1H7.1C3.7,1,1,3.7,1,7.1v49.8C1,60.3,3.7,63,7.1,63
	z"/>
<g>
	<path class="st1" d="M49.7,24.3l-6.9,6.9c-1.6,1.6-4.2,1.6-5.8,0l-4.5-4.5c-1.6-1.6-1.6-4.2,0-5.8l7.1-7.1c2-2,1.5-4.5-1.3-4.8
		c-5.3-0.6-10.9,1.1-15,5.2c-3.1,3.1-4.9,7.1-5.2,11.2c-0.1,1.7-0.1,3.3,0.2,5L7.8,40.9c-1.7,1.7-2.1,4.3-0.9,6.4
		c2,3.5,5.1,6.2,9,8.2c2.8,1.5,6.4,1,8.6-1.3c3.2-3.2,7.7-7.7,9.3-9.3c1.7,0.2,3.5,0.2,5.3-0.1c3.7-0.6,7.2-2.3,10-5.1
		c3.9-3.9,5.7-9.1,5.3-14.2C54.2,22.8,51.7,22.3,49.7,24.3z"/>
</g>
</svg>
