<svg width="48" height="48" xmlns="http://www.w3.org/2000/svg">
  <path fill="#ffc107" d="m26.569578,2.586853c-1.89038,0 -3.426103,1.535723 -3.426103,3.426103c0,0.625665 0.187365,1.207836 0.481796,1.713052l-6.477476,0c-0.471759,0 -0.856526,0.384767 -0.856526,0.856526l0,2.569577c0,0.471759 0.384767,0.856526 0.856526,0.856526l13.704413,0c0.475105,0 0.856526,-0.384767 0.856526,-0.856526l0,-2.569577c0,-0.471759 -0.38142,-0.856526 -0.856526,-0.856526l-1.338322,0c0.294431,-0.505216 0.481796,-1.087387 0.481796,-1.713052c0,-1.89038 -1.535723,-3.426103 -3.426103,-3.426103zm0,1.713052c0.943518,0 1.713052,0.769536 1.713052,1.713052c0,0.943518 -0.769534,1.713052 -1.713052,1.713052c-0.943515,0 -1.713052,-0.769534 -1.713052,-1.713052c0,-0.943515 0.769536,-1.713052 1.713052,-1.713052zm-8.565258,8.565258l0,6.771907c-0.120449,0.548712 -1.743164,2.951 -3.185205,5.058856c-4.346199,6.357028 -7.94963,11.880949 -7.94963,14.989202c0,4.540257 4.811267,5.728016 7.360769,5.728016l19.539495,0c2.549504,0 7.360769,-1.18776 7.360769,-5.728016c0,-3.108252 -3.603431,-8.632174 -7.94963,-14.989202c-1.442041,-2.107855 -3.068103,-4.496761 -3.185205,-4.978556l0,-6.852206l-1.713052,0l0,6.852206c0,0.776227 0.843143,2.084435 3.479636,5.942148c0.200748,0.291084 0.404843,0.598898 0.615628,0.910059l-16.782553,0c0.210785,-0.307814 0.441646,-0.618974 0.642394,-0.910059c2.636494,-3.857713 3.479636,-5.165921 3.479636,-5.942148l0,-6.852206l-1.713052,0zm5.995681,1.713052c-1.89038,0 -3.426103,1.535723 -3.426103,3.426103c0,1.89038 1.535723,3.426103 3.426103,3.426103c1.89038,0 3.426103,-1.535723 3.426103,-3.426103c0,-1.89038 -1.535723,-3.426103 -3.426103,-3.426103zm0,1.713052c0.943518,0 1.713052,0.769536 1.713052,1.713052c0,0.943518 -0.769534,1.713052 -1.713052,1.713052c-0.943515,0 -1.713052,-0.769534 -1.713052,-1.713052c0,-0.943515 0.769536,-1.713052 1.713052,-1.713052zm-4.282629,14.560939c1.418621,0 2.569577,1.150957 2.569577,2.569577c0,1.418621 -1.150957,2.569577 -2.569577,2.569577c-1.418621,0 -2.569577,-1.150957 -2.569577,-2.569577c0,-1.418621 1.150957,-2.569577 2.569577,-2.569577zm9.421784,3.426103c1.893726,0 3.426103,1.532379 3.426103,3.426103c0,1.893726 -1.532377,3.426103 -3.426103,3.426103c-1.893724,0 -3.426103,-1.532377 -3.426103,-3.426103c0,-1.893724 1.532379,-3.426103 3.426103,-3.426103z"/>
</svg>