<svg xmlns="http://www.w3.org/2000/svg" viewBox="0 0 20 20" style="fill:#696969;">
	<path d="m5.35158,16.781917c0.76658,-0.5151 1.06148,-1.4122 0.72644,-2.2101c-0.55807,-1.329 -2.10432,-1.5954 -3.0801,-0.5307c-0.67564,0.7373 -0.70924,1.5797 -0.09225,2.3129c0.72762,0.8648 1.57495,1.013 2.44592,0.4279l-0.00001,0zm10.52016,-0.4236c0.09474,-0.079 0.14827,-0.4804 0.14827,-1.1119c0,-0.6314 -0.05352,-1.0329 -0.14827,-1.1119c-0.10923,-0.091 -1.2081,-0.1235 -4.17617,-0.1235c-2.96808,0 -4.06692,0.033 -4.17617,0.1235c-0.15829,0.1319 -0.21674,2.1531 -0.06588,2.2787c0.04531,0.038 1.92458,0.069 4.17617,0.069c3.01933,0 4.13272,-0.033 4.24206,-0.1235l-0.00001,-0.0004zm-9.36812,-9.9038c0.51258,-0.5126 0.28962,-1.3325 -0.43144,-1.5867c-0.32662,-0.115 -0.8859,0.1518 -1.07196,0.5116c-0.48216,0.9324 0.75874,1.8197 1.5034,1.0751zm-2.91439,-3.088c0.64931,-0.6477 0.95867,-1.3252 0.95867,-1.415c0,-0.09 -0.09208,-0.1927 -0.20469,-0.2284c-0.1691,-0.053 -0.39615,0.1251 -1.30588,1.0283c-1.18885,1.1803 -1.24419,1.3662 -1.22214,1.5675c0.03601,0.3292 0.62197,0.197 1.77404,-0.9524zm1.12632,1.1115c0.65242,-0.6509 0.96326,-1.3317 0.96326,-1.4219c0,-0.09 -0.09253,-0.1936 -0.20568,-0.2295c-0.1699,-0.054 -0.39805,0.1257 -1.31211,1.0332c-1.19453,1.1859 -1.25014,1.3727 -1.22799,1.5751c0.03619,0.3306 0.62495,0.1979 1.78252,-0.9569zm-3.08289,14.3443c-0.60164,-0.3668 -0.61768,-0.4602 -0.61768,-3.5924c0,-2.7687 0.00361,-2.8222 0.20585,-3.1476c0.40755,-0.6554 -0.01705,-0.623 8.16655,-0.6224c6.13851,0.0004 6.6978,0.042 6.90271,0.1484c0.29532,-0.3947 0.29032,-0.3992 0.55535,-0.9201c0.73041,-1.6568 -0.36848,-2.8646 -1.76656,-3.0771c-0.82198,0 -0.98297,0.4085 -2.16641,1.1732c-3.86833,2.644 -5.1991,0 -6.79581,-0.9721c-0.48211,0.1214 -1.2394,-0.046 -1.87632,-0.415c-1.12492,-0.6516 -3.00825,-2.3681 -3.18466,-2.9025c-0.22391,-0.6785 0.2351,-1.6298 1.2401,-2.5699c0.65184,-0.6097 0.90827,-0.7653 1.51256,-0.9174c0.35749,-0.09 0.46699,-0.08 0.81255,0.073c0.69047,0.3054 2.4911,2.4074 3.0413,3.5502c0.31031,0.6447 0.33943,1.3661 0.07346,1.8189l-0.17907,0.3049l0.49553,0.4458c0.67154,0.6042 1.28299,0.8984 1.86183,0.8959c0.55784,0 1.03134,-0.2076 1.94787,-0.8439c1.42871,-0.9918 2.07261,-1.2437 3.17935,-1.2437c3.40401,0 5.08529,3.3673 3.12594,6.2608l-0.34391,0.5078l-0.04539,2.6348c-0.05036,2.9205 -0.07608,3.0528 -0.66311,3.4108c-0.28224,0.1721 -0.51179,0.1773 -7.74099,0.1773c-7.22918,0 -7.45873,-0.01 -7.74097,-0.1773l-0.00007,-0.0004z" id="path3380"/>
</svg>